<svg viewBox="0 0 24 24" fill="none" xmlns="http://www.w3.org/2000/svg" class="icon">
  <!-- Perfume Bottle Icon -->
  <path d="M8 2C8 1.44772 8.44772 1 9 1H15C15.5523 1 16 1.44772 16 2V3H18C18.5523 3 19 3.44772 19 4V20C19 20.5523 18.5523 21 18 21H6C5.44772 21 5 20.5523 5 20V4C5 3.44772 5.44772 3 6 3H8V2Z" stroke="currentColor" stroke-width="2" fill="none"/>
  
  <!-- Bottle Cap -->
  <path d="M7 3H17V5C17 5.55228 16.5523 6 16 6H8C7.44772 6 7 5.55228 7 5V3Z" fill="currentColor"/>
  
  <!-- Perfume Liquid -->
  <path d="M8 7H16V18C16 18.5523 15.5523 19 15 19H9C8.44772 19 8 18.5523 8 18V7Z" fill="currentColor" opacity="0.3"/>
  
  <!-- Spray Nozzle -->
  <circle cx="12" cy="4" r="1" fill="currentColor"/>
  
  <!-- Brand Label -->
  <rect x="9" y="12" width="6" height="2" rx="1" fill="currentColor" opacity="0.2"/>
</svg>
